<?xml version="1.0" encoding="utf-8"?>
<!-- Generator: Adobe Illustrator 19.0.0, SVG Export Plug-In . SVG Version: 6.00 Build 0)  -->
<svg version="1.1" id="Layer_1" xmlns="http://www.w3.org/2000/svg" xmlns:xlink="http://www.w3.org/1999/xlink" x="0px" y="0px"
	 viewBox="0 0 96 96" style="enable-background:new 0 0 96 96;" xml:space="preserve">
<style type="text/css">
	.st0{fill:#95A5A6;}
	.st1{fill:#BDC3C7;}
	.st2{fill:#7F8C8D;}
	.st3{fill:#ECF0F1;}
</style>
<g id="XMLID_1_">
	<path id="XMLID_3_" class="st0" d="M21.4,56.9v8.6v1.2v0.3c0,0,0,0,0,0.3c0,7.1,11.9,13.3,26.6,13.3c14.7,0,26.6-6.2,26.6-13.3
		v-0.6v-0.9v-8.9H21.4z"/>
	<ellipse id="XMLID_4_" class="st1" cx="48" cy="56.9" rx="26.6" ry="11.8"/>
	<path id="XMLID_5_" class="st2" d="M21.6,67.2c-0.1,0.3-0.2,0.9-0.2,1.5c0,6.5,11.9,11.8,26.6,11.8c14.7,0,26.6-5.3,26.6-11.8
		c0-0.6-0.1-1.2-0.2-1.5C72.8,72.8,61.6,77.5,48,77.5C34.4,77.5,23.2,72.8,21.6,67.2z"/>
	<path id="XMLID_6_" class="st0" d="M21.4,42.1v8.6v1.2v0.3c0,0,0,0,0,0.3c0,7.1,11.9,13.3,26.6,13.3c14.7,0,26.6-6.2,26.6-13.3
		v-0.6V51v-8.9H21.4z"/>
	<ellipse id="XMLID_7_" class="st1" cx="48" cy="42.1" rx="26.6" ry="11.8"/>
	<path id="XMLID_8_" class="st2" d="M21.6,52.4c-0.1,0.3-0.2,0.9-0.2,1.5c0,6.5,11.9,11.8,26.6,11.8c14.7,0,26.6-5.3,26.6-11.8
		c0-0.6-0.1-1.2-0.2-1.5C72.8,58,61.6,62.8,48,62.8C34.4,62.8,23.2,58,21.6,52.4z"/>
	<path id="XMLID_9_" class="st0" d="M21.4,27.3v8.6v1.2v0.3c0,0,0,0,0,0.3C21.4,44.8,33.3,51,48,51c14.7,0,26.6-6.2,26.6-13.3v-0.6
		v-0.9v-8.9H21.4z"/>
	<path id="XMLID_10_" class="st2" d="M21.6,37.7c-0.1,0.3-0.2,0.9-0.2,1.5C21.4,45.6,33.3,51,48,51c14.7,0,26.6-5.3,26.6-11.8
		c0-0.6-0.1-1.2-0.2-1.5C72.8,43.3,61.6,48,48,48C34.4,48,23.2,43.3,21.6,37.7z"/>
	<path id="XMLID_11_" class="st1" d="M48,56.9v23.6c14.7,0,26.6-6.2,26.6-13.3v-0.6v-0.9v-8.9H48z"/>
	<path id="XMLID_12_" class="st3" d="M48,45v23.6c14.7,0,26.6-5.3,26.6-11.8C74.6,50.3,62.7,45,48,45z"/>
	<path id="XMLID_13_" class="st1" d="M48,42.1v23.6c14.7,0,26.6-6,26.6-13.3v-0.6V51v-8.9H48z"/>
	<path id="XMLID_14_" class="st0" d="M74.4,52.4C72.8,58.3,61.6,62.8,48,62.8v3c14.7,0,26.6-5.3,26.6-11.8
		C74.6,53.4,74.5,52.9,74.4,52.4z"/>
	<path id="XMLID_15_" class="st3" d="M48,30.3v23.6c14.7,0,26.6-5.3,26.6-11.8C74.6,35.6,62.7,30.3,48,30.3z"/>
	<path id="XMLID_16_" class="st1" d="M48,27.3V51c14.7,0,26.6-6,26.6-13.3v-0.6v-0.9v-8.9H48z"/>
	<path id="XMLID_17_" class="st0" d="M74.4,37.7C72.8,43.5,61.6,48,48,48v3c14.7,0,26.6-5.3,26.6-11.8
		C74.6,38.6,74.5,38.1,74.4,37.7z"/>
	<path id="XMLID_18_" class="st0" d="M74.4,67.2C72.8,72.8,61.6,77.5,48,77.5v3c14.7,0,26.6-5.3,26.6-11.8
		C74.6,68.1,74.5,67.5,74.4,67.2z"/>
	<ellipse id="XMLID_19_" class="st1" cx="48" cy="27.3" rx="26.6" ry="11.8"/>
</g>
</svg>
